<?xml version="1.0" standalone="no"?>
<!DOCTYPE svg PUBLIC "-//W3C//DTD SVG 20010904//EN"
 "http://www.w3.org/TR/2001/REC-SVG-20010904/DTD/svg10.dtd">
<svg version="1.0" xmlns="http://www.w3.org/2000/svg"
 width="700.000000pt" height="700.000000pt" viewBox="0 0 700.000000 700.000000"
 preserveAspectRatio="xMidYMid meet">
<metadata>
Created by potrace 1.14, written by Peter Selinger 2001-2017
</metadata>
<g transform="translate(0.000000,700.000000) scale(0.100000,-0.100000)"
fill="#000000" stroke="none">
<path d="M1695 6989 c-39 -12 -87 -55 -110 -98 -24 -47 -24 -125 0 -316 2 -16
7 -61 10 -100 4 -38 8 -83 10 -100 2 -16 6 -57 10 -90 15 -155 23 -239 30
-307 3 -27 7 -69 10 -95 3 -27 7 -73 10 -103 3 -30 7 -71 10 -90 2 -19 7 -64
10 -100 3 -36 8 -83 10 -105 12 -108 15 -135 20 -195 3 -36 8 -76 10 -90 2
-14 6 -56 10 -95 3 -38 8 -86 10 -105 2 -19 7 -62 10 -95 3 -33 7 -80 10 -105
2 -25 7 -72 10 -105 3 -33 8 -76 10 -95 3 -19 7 -64 11 -100 3 -36 7 -76 9
-90 1 -14 6 -59 9 -100 4 -41 9 -86 11 -100 2 -14 6 -59 10 -100 4 -41 8 -86
10 -100 2 -14 6 -54 10 -90 3 -36 8 -83 11 -105 3 -22 6 -63 9 -90 2 -28 6
-75 9 -105 4 -30 9 -77 11 -105 3 -27 8 -66 10 -85 3 -19 7 -69 10 -110 3 -41
8 -86 10 -100 4 -30 15 -128 20 -190 6 -65 15 -150 20 -190 4 -36 11 -102 20
-205 3 -33 7 -76 10 -95 2 -19 7 -62 10 -95 5 -61 10 -108 21 -205 6 -62 11
-108 19 -195 8 -79 14 -141 20 -191 2 -23 7 -70 10 -105 9 -89 12 -126 19
-184 3 -27 8 -75 11 -105 6 -58 12 -125 20 -200 3 -25 7 -70 10 -100 3 -30 7
-73 10 -95 2 -22 7 -67 10 -100 3 -33 8 -71 10 -85 2 -14 7 -61 10 -105 3 -44
7 -91 10 -105 2 -14 7 -56 10 -95 3 -38 8 -83 10 -100 2 -16 7 -61 10 -100 4
-38 8 -83 10 -100 2 -16 7 -59 10 -95 3 -36 8 -74 10 -85 2 -11 4 -37 4 -57
l1 -38 1036 0 1036 0 -193 195 -194 195 -209 0 -208 0 7 28 c3 15 13 41 20 57
7 17 59 145 115 285 224 561 682 1707 694 1735 7 17 25 62 40 100 15 39 34 84
41 100 17 38 286 707 289 720 2 6 7 19 11 30 9 22 8 19 337 840 121 303 226
564 233 580 7 17 25 62 40 100 15 39 33 84 40 100 85 193 60 377 -70 510 -128
132 -325 168 -487 90 -71 -34 -123 -79 -182 -158 -29 -40 -105 -142 -168 -228
-123 -166 -149 -191 -221 -211 -58 -15 -136 1 -185 39 -31 23 -96 116 -172
243 -75 125 -577 922 -609 965 -41 57 -43 59 -131 150 -199 205 -490 348 -775
381 -99 12 -273 10 -333 -3 -79 -16 -102 -16 -102 2 0 26 -31 78 -63 106 -50
44 -124 59 -192 38z m930 -913 c39 -8 81 -28 132 -62 54 -36 57 -41 68 -144
10 -88 15 -133 20 -170 3 -19 7 -64 10 -100 3 -36 8 -76 10 -90 2 -14 7 -54
10 -90 3 -36 8 -76 10 -90 3 -14 7 -52 10 -85 5 -54 9 -91 20 -180 2 -16 7
-55 10 -85 10 -95 16 -154 20 -180 2 -14 6 -54 9 -90 4 -36 8 -76 10 -90 3
-14 7 -55 11 -92 3 -37 8 -77 10 -90 2 -13 6 -52 9 -88 3 -36 8 -74 10 -85 2
-11 7 -51 10 -90 4 -38 9 -81 11 -95 4 -25 8 -60 20 -190 4 -36 8 -72 10 -80
2 -8 7 -46 10 -85 3 -38 8 -83 10 -100 2 -16 7 -57 10 -90 3 -33 8 -71 10 -85
2 -14 7 -56 10 -95 4 -38 8 -77 10 -85 2 -8 7 -44 10 -80 3 -36 10 -99 15
-140 5 -41 12 -104 15 -140 4 -36 8 -76 10 -90 2 -14 6 -54 10 -90 4 -36 8
-76 10 -90 2 -14 6 -52 10 -85 9 -89 15 -146 20 -185 3 -19 7 -62 11 -95 3
-33 7 -71 9 -85 2 -14 6 -54 10 -90 3 -36 8 -76 10 -90 2 -14 7 -53 10 -87 3
-34 7 -70 9 -80 2 -10 7 -49 10 -88 4 -38 9 -82 12 -97 4 -20 -8 -53 -49 -130
-30 -57 -78 -149 -107 -206 -29 -56 -54 -101 -56 -100 -1 2 -5 37 -9 78 -4 41
-8 77 -10 80 -1 3 -6 48 -10 100 -4 52 -8 97 -10 100 -1 3 -6 32 -9 65 -6 61
-14 132 -21 195 -2 19 -7 58 -9 85 -3 28 -10 91 -16 140 -17 148 -24 208 -35
305 -3 30 -10 93 -15 140 -5 47 -12 110 -15 140 -4 30 -8 66 -10 80 -2 14 -6
52 -9 85 -4 33 -8 76 -11 95 -2 19 -7 64 -11 100 -3 36 -7 67 -9 70 -2 3 -6
45 -10 95 -4 49 -8 92 -10 95 -1 3 -6 40 -9 82 -4 42 -9 85 -11 95 -1 11 -6
50 -9 88 -4 39 -9 84 -11 100 -2 17 -7 55 -10 86 -3 31 -7 65 -9 75 -2 11 -7
55 -10 99 -4 44 -9 87 -11 95 -2 8 -6 45 -10 82 -3 37 -8 77 -10 90 -2 13 -6
52 -9 88 -4 36 -8 74 -10 85 -2 12 -7 57 -10 100 -4 44 -8 87 -11 95 -2 8 -6
46 -10 83 -3 37 -8 76 -9 85 -2 9 -7 49 -10 87 -4 39 -9 81 -11 95 -3 23 -10
82 -21 188 -2 23 -7 63 -10 90 -3 26 -7 67 -10 92 -2 25 -11 101 -19 170 -8
69 -17 150 -20 180 -3 30 -7 71 -10 90 -3 19 -7 60 -10 90 -3 30 -8 71 -10 90
-16 133 -23 206 -19 212 5 7 22 6 79 -6z m-258 -44 c1 -9 5 -42 8 -72 3 -30 8
-71 10 -90 2 -19 7 -64 10 -100 3 -36 8 -72 10 -80 2 -8 7 -51 10 -95 4 -44 8
-82 10 -85 1 -3 6 -41 9 -85 4 -44 9 -87 11 -95 2 -8 6 -46 10 -85 3 -38 8
-83 10 -100 5 -34 12 -93 20 -180 4 -33 8 -71 10 -85 2 -14 7 -56 11 -95 3
-38 8 -79 10 -90 2 -10 6 -49 10 -85 3 -36 7 -75 9 -88 2 -13 7 -53 10 -90 4
-37 8 -77 10 -90 2 -13 7 -53 10 -90 4 -37 8 -74 10 -82 3 -8 7 -51 10 -95 3
-44 8 -87 10 -95 2 -8 7 -46 10 -85 4 -38 8 -77 10 -85 2 -8 7 -49 10 -90 4
-41 8 -86 10 -100 2 -14 6 -50 10 -80 3 -30 8 -71 10 -90 2 -19 7 -64 11 -100
3 -36 8 -72 9 -81 2 -9 6 -52 10 -95 4 -43 9 -81 10 -84 2 -3 6 -39 9 -80 4
-41 9 -86 11 -100 2 -14 7 -54 10 -90 3 -36 8 -76 10 -90 2 -14 6 -52 10 -85
3 -33 10 -94 15 -135 5 -41 12 -102 15 -135 3 -33 8 -73 10 -90 2 -16 7 -57
10 -90 3 -33 7 -76 10 -95 6 -49 23 -195 30 -255 5 -56 23 -217 30 -283 3 -23
7 -63 10 -90 3 -26 8 -60 10 -77 3 -16 7 -55 10 -85 3 -30 7 -73 10 -95 2 -22
7 -67 11 -100 4 -33 10 -87 13 -120 l7 -60 -104 -205 c-164 -321 -155 -306
-163 -276 -4 14 -10 59 -13 100 -4 41 -8 83 -10 93 -2 10 -7 47 -10 83 -4 36
-9 81 -11 100 -2 19 -7 60 -10 90 -7 66 -14 123 -20 170 -5 35 -9 74 -20 185
-3 33 -8 71 -10 85 -2 14 -6 54 -10 90 -4 36 -8 76 -10 90 -3 25 -16 133 -20
180 -1 14 -5 48 -9 75 -3 28 -8 73 -11 100 -8 84 -17 159 -20 185 -3 25 -15
131 -20 180 -2 14 -6 50 -9 80 -4 30 -8 71 -10 90 -7 71 -22 198 -30 265 -3
22 -8 65 -10 95 -3 30 -7 71 -10 90 -6 44 -16 130 -22 195 -2 28 -7 65 -9 83
-3 19 -8 62 -11 95 -3 34 -7 73 -9 87 -3 14 -7 57 -11 95 -3 39 -8 79 -10 90
-2 10 -6 49 -9 85 -4 36 -8 72 -10 80 -2 8 -7 49 -10 90 -4 41 -8 86 -10 100
-3 14 -7 50 -10 80 -3 30 -7 71 -10 90 -3 19 -7 60 -10 90 -3 30 -8 71 -10 90
-3 19 -7 62 -10 95 -3 33 -7 71 -10 85 -2 14 -7 54 -10 90 -3 36 -8 76 -10 90
-2 14 -7 54 -10 90 -3 36 -8 76 -10 90 -2 14 -7 52 -10 85 -3 33 -8 74 -10 90
-2 17 -6 59 -10 95 -4 36 -8 76 -10 90 -2 14 -7 52 -10 85 -3 33 -8 76 -10 95
-3 19 -7 60 -10 90 -3 30 -8 66 -10 80 -16 104 -20 204 -10 261 20 115 112
241 215 294 48 25 52 24 57 -3z m816 -612 c106 -164 127 -203 131 -243 3 -26
7 -62 10 -80 3 -17 8 -59 11 -92 4 -33 8 -73 10 -90 2 -16 7 -57 10 -90 3 -33
8 -71 10 -85 3 -22 13 -108 31 -265 2 -22 6 -56 9 -75 2 -19 7 -62 10 -95 4
-33 8 -73 10 -90 2 -16 7 -57 11 -90 3 -33 8 -71 9 -85 2 -14 6 -54 10 -90 3
-36 8 -76 10 -90 2 -14 7 -47 10 -75 8 -83 15 -136 24 -215 6 -41 13 -102 16
-135 3 -33 8 -71 10 -85 2 -14 6 -52 10 -85 5 -55 9 -94 20 -180 2 -16 7 -57
10 -90 3 -33 8 -71 10 -85 3 -14 7 -56 11 -95 3 -38 7 -77 9 -87 2 -9 7 -48
10 -85 4 -37 9 -76 11 -87 2 -10 6 -51 10 -90 3 -39 10 -92 14 -119 6 -43 3
-54 -35 -130 -99 -192 -125 -241 -135 -251 -5 -5 -10 -19 -10 -30 0 -45 -18 3
-24 64 -4 36 -11 101 -16 145 -5 44 -12 103 -14 130 -3 28 -10 93 -16 145 -6
52 -13 118 -16 145 -6 64 -13 123 -19 155 -2 14 -7 57 -10 95 -3 39 -8 81 -10
95 -3 14 -7 52 -10 85 -3 33 -7 76 -10 95 -2 19 -7 55 -9 80 -3 25 -8 72 -12
105 -3 33 -7 74 -9 90 -2 17 -10 95 -19 175 -10 80 -19 165 -22 190 -3 25 -7
56 -9 70 -2 14 -6 57 -10 95 -3 39 -8 77 -10 85 -2 8 -6 51 -10 95 -3 44 -8
87 -10 95 -2 8 -6 46 -10 83 -3 37 -8 76 -10 85 -1 9 -6 49 -9 87 -4 39 -8 81
-10 95 -3 14 -7 57 -11 95 -3 39 -8 81 -10 95 -3 14 -7 50 -10 81 -2 31 -7 72
-9 90 -3 19 -8 61 -11 94 -3 33 -8 74 -10 90 -11 88 -15 126 -20 180 -3 33 -8
77 -10 98 -10 78 -23 187 -31 262 -6 59 -23 80 149 -185z m1895 -138 c30 -19
52 -63 52 -102 0 -19 -25 -79 -64 -153 -35 -67 -93 -178 -128 -247 -140 -269
-235 -450 -300 -575 -37 -71 -80 -156 -95 -187 -28 -57 -39 -70 -40 -45 0 6
-4 35 -7 62 -6 48 -13 106 -21 170 -2 17 -6 50 -9 75 -3 25 -9 70 -12 100 -3
30 -7 66 -10 80 -2 14 -6 55 -10 92 -6 61 -4 67 16 78 83 44 157 136 317 393
84 134 159 250 168 257 19 16 74 28 100 22 11 -3 30 -12 43 -20z m-1506 -464
c59 -89 140 -164 223 -209 33 -18 38 -35 50 -164 3 -38 8 -81 10 -95 2 -14 7
-54 10 -90 11 -111 27 -255 40 -360 2 -19 7 -66 10 -105 3 -38 8 -81 10 -95 2
-14 6 -54 10 -90 3 -36 8 -81 10 -100 2 -19 7 -60 10 -90 3 -30 8 -66 10 -80
2 -14 7 -61 10 -105 4 -44 8 -82 10 -85 1 -3 6 -43 9 -90 l7 -85 -58 -110
c-33 -60 -79 -149 -103 -197 l-45 -88 -7 44 c-3 25 -9 73 -12 108 -4 35 -8 73
-10 84 -2 11 -7 53 -11 93 -3 40 -8 80 -10 89 -1 9 -6 46 -9 82 -4 36 -9 81
-11 100 -9 69 -14 116 -20 170 -3 30 -8 66 -10 80 -3 14 -7 52 -10 85 -2 33
-7 71 -9 85 -3 14 -8 56 -11 93 -4 37 -8 76 -9 85 -3 16 -14 111 -22 192 -3
36 -11 99 -19 160 -2 19 -7 58 -10 85 -3 28 -7 68 -10 90 -3 22 -7 61 -10 88
-7 66 -15 130 -25 217 -5 41 -12 100 -15 130 -3 30 -8 72 -11 93 -3 20 -4 37
-1 37 2 0 20 -24 39 -52z m694 -373 c6 -49 14 -117 18 -150 3 -33 8 -76 11
-95 9 -73 15 -122 21 -167 3 -27 9 -82 14 -123 5 -41 12 -100 15 -130 4 -30 8
-67 11 -83 3 -21 -19 -74 -92 -215 -53 -103 -101 -191 -105 -197 -5 -5 -9 1
-10 15 0 14 -2 32 -4 41 -3 17 -12 93 -20 184 -4 33 -8 71 -10 85 -2 14 -7 54
-10 90 -3 36 -8 81 -10 100 -18 163 -36 331 -40 360 -2 19 -7 66 -11 105 -3
38 -7 76 -9 85 -2 8 -6 53 -10 100 l-7 85 119 0 118 0 11 -90z"/>
</g>
</svg>
