<?xml version="1.0" standalone="no"?>
<!DOCTYPE svg PUBLIC "-//W3C//DTD SVG 20010904//EN"
 "http://www.w3.org/TR/2001/REC-SVG-20010904/DTD/svg10.dtd">
<svg version="1.0" xmlns="http://www.w3.org/2000/svg"
 width="700.000000pt" height="700.000000pt" viewBox="0 0 700.000000 700.000000"
 preserveAspectRatio="xMidYMid meet">
<metadata>
Created by potrace 1.14, written by Peter Selinger 2001-2017
</metadata>
<g transform="translate(0.000000,700.000000) scale(0.100000,-0.100000)"
fill="#000000" stroke="none">
<path d="M836 6957 c-3 -23 -8 -69 -11 -102 -4 -33 -8 -71 -10 -85 -2 -14 -6
-54 -10 -90 -5 -63 -10 -107 -20 -180 -2 -19 -7 -62 -10 -95 -3 -33 -8 -78
-10 -100 -11 -96 -15 -133 -20 -180 -3 -27 -7 -63 -9 -80 -3 -16 -7 -66 -11
-110 -4 -44 -8 -83 -8 -87 -1 -4 43 -39 98 -78 55 -38 105 -74 111 -79 6 -5
18 -46 27 -92 27 -138 12 -263 -43 -356 -35 -60 -54 -306 -54 -713 0 -249 4
-371 18 -550 2 -25 7 -83 11 -130 3 -47 8 -92 10 -100 2 -8 7 -42 10 -75 7
-62 12 -101 20 -145 6 -33 15 -96 21 -140 2 -19 6 -46 9 -60 3 -14 7 -34 9
-46 63 -334 137 -620 228 -889 43 -129 97 -277 108 -300 5 -11 21 -49 35 -85
15 -36 42 -98 61 -138 19 -41 34 -76 34 -79 0 -27 259 -505 331 -610 16 -23
29 -44 29 -47 0 -3 18 -31 40 -63 22 -32 46 -66 53 -76 135 -201 341 -456 514
-637 29 -30 53 -60 53 -66 0 -21 -50 -144 -74 -182 -25 -40 -68 -82 -101 -100
-15 -9 32 -11 191 -12 l211 0 22 78 c13 42 25 85 28 95 2 9 7 17 11 18 4 0
281 2 615 2 384 1 611 -2 615 -8 4 -5 18 -48 32 -95 l26 -85 209 -3 c209 -2
210 -2 182 17 -54 35 -124 140 -142 211 -13 55 332 1123 498 1540 3 8 29 76
57 150 28 74 54 144 59 155 5 11 15 36 22 55 22 62 275 679 307 751 11 24 61
136 110 249 255 580 597 1279 891 1820 l63 115 1 100 c1 98 -9 251 -18 265 -3
4 -7 24 -11 45 -9 59 -52 184 -86 250 -147 290 -390 452 -758 509 -91 14 -419
16 -510 2 -19 -2 -55 -7 -80 -11 -42 -5 -124 -19 -180 -30 -14 -3 -38 -8 -55
-11 -50 -8 -188 -43 -317 -78 -362 -99 -736 -171 -1093 -210 -85 -10 -295 -20
-410 -20 -108 0 -344 13 -355 19 -3 1 -32 6 -65 9 -100 11 -283 55 -410 98
-115 38 -323 134 -356 164 -8 8 -19 14 -23 14 -12 0 -143 96 -216 159 -168
144 -350 378 -468 603 l-30 57 -6 -42z m4225 -1176 c4 -1 9 -9 12 -18 3 -10
48 -169 101 -353 54 -184 106 -364 116 -400 11 -36 36 -121 56 -190 20 -69 40
-140 46 -158 7 -24 6 -36 -4 -46 -36 -36 -175 -191 -187 -208 -7 -11 -17 -16
-21 -11 -4 4 -49 152 -100 328 -145 506 -258 896 -284 985 -8 25 -11 48 -7 52
3 4 53 10 111 13 58 4 106 8 107 9 3 2 23 1 54 -3z m284 -17 c148 -26 272 -83
350 -159 115 -112 152 -272 111 -475 -24 -113 -20 -108 -176 -264 -97 -96
-151 -144 -154 -135 -7 20 -56 191 -61 209 -4 19 -209 727 -229 794 l-15 48
72 -6 c40 -3 86 -9 102 -12z m-642 -96 c14 -46 27 -92 30 -103 5 -22 182 -634
338 -1169 30 -105 30 -101 -14 -151 -10 -11 -53 -61 -95 -112 -42 -50 -78 -91
-79 -89 -4 4 -268 909 -277 951 -4 14 -28 98 -117 400 -22 77 -43 147 -44 155
-2 8 -13 45 -23 81 l-20 66 127 26 c69 14 131 25 138 26 6 1 23 -36 36 -81z
m-378 -60 c17 -64 183 -641 210 -733 8 -27 30 -104 49 -170 19 -66 76 -265
127 -441 l92 -322 -89 -113 c-99 -127 -122 -155 -127 -148 -3 4 -35 117 -288
999 -54 190 -103 359 -108 375 -5 17 -37 127 -71 245 -34 118 -68 234 -75 257
l-13 41 81 23 c45 12 102 28 127 35 25 7 50 13 56 13 6 1 19 -27 29 -61z
m-255 -498 c72 -250 138 -480 146 -510 8 -30 28 -98 44 -150 16 -52 79 -270
140 -485 96 -334 110 -392 100 -410 -30 -47 -193 -265 -197 -262 -3 4 -113
381 -203 697 -11 36 -28 97 -39 135 -11 39 -55 194 -99 345 -44 151 -94 327
-112 390 -18 63 -45 158 -61 210 -51 168 -117 405 -113 409 3 4 258 89 261 87
1 -1 61 -206 133 -456z m-479 288 c6 -24 47 -167 91 -318 44 -151 86 -297 93
-325 7 -27 43 -153 80 -280 37 -126 71 -243 75 -260 5 -16 49 -172 100 -345
50 -173 93 -322 95 -330 2 -8 20 -71 40 -140 20 -69 38 -132 40 -140 2 -8 8
-30 14 -48 9 -31 5 -40 -91 -182 -56 -82 -103 -148 -104 -147 -3 3 -59 194
-464 1602 -87 303 -178 619 -203 703 l-44 154 26 10 c14 5 61 23 105 39 43 16
86 34 95 39 29 17 40 10 52 -32z m-366 -107 c3 -11 8 -28 10 -38 4 -18 46
-167 202 -703 47 -162 94 -324 104 -360 25 -90 123 -430 166 -575 19 -66 37
-129 40 -140 3 -11 17 -58 30 -105 14 -47 29 -98 33 -115 8 -32 74 -260 89
-310 5 -16 19 -64 31 -106 l22 -77 -20 -28 c-11 -16 -55 -85 -97 -154 -43 -69
-79 -127 -81 -128 -3 -4 -28 74 -44 133 -4 17 -28 100 -52 185 -25 85 -48 164
-51 175 -3 11 -51 178 -106 370 -56 193 -108 375 -117 405 -8 30 -19 66 -24
80 -5 14 -15 50 -24 80 -54 191 -87 309 -95 335 -6 17 -71 244 -147 505 -75
261 -140 487 -144 503 -5 15 -6 27 -2 28 31 3 71 13 148 33 113 30 121 30 129
7z m-1248 -22 c70 -14 60 0 102 -146 12 -40 30 -103 41 -140 11 -38 65 -225
120 -418 55 -192 118 -411 140 -485 65 -223 362 -1253 370 -1285 4 -16 42
-147 83 -290 201 -693 277 -957 310 -1076 l21 -77 -56 -123 c-31 -68 -71 -157
-89 -197 l-33 -73 -42 148 c-23 81 -76 267 -119 413 -42 146 -80 279 -85 295
-4 17 -38 134 -74 260 -37 127 -76 259 -86 295 -16 59 -168 585 -381 1325 -45
154 -132 458 -195 675 -62 217 -118 409 -123 425 -71 224 -78 272 -52 365 6
19 12 47 15 63 3 15 8 37 11 48 8 23 2 23 122 -2z m298 -44 c39 -3 92 -7 118
-9 56 -4 61 -8 75 -61 5 -22 31 -112 57 -200 68 -233 231 -801 271 -940 18
-66 38 -133 43 -150 9 -29 149 -514 157 -545 2 -8 17 -60 33 -115 56 -189 93
-320 101 -350 4 -16 34 -118 65 -225 31 -107 59 -202 60 -210 2 -8 36 -125 75
-260 40 -135 75 -258 79 -274 5 -25 -8 -59 -84 -207 -49 -97 -93 -175 -96
-173 -4 2 -10 18 -14 36 -4 18 -9 38 -11 43 -2 6 -12 42 -23 81 -11 40 -35
125 -55 190 -19 66 -87 301 -151 524 -64 223 -160 554 -212 735 -53 182 -104
359 -114 395 -9 36 -36 128 -59 205 -23 77 -48 163 -55 190 -17 63 -114 400
-162 560 -34 116 -86 299 -103 360 -4 17 -32 114 -62 217 -30 103 -53 190 -51
192 3 3 15 3 26 0 12 -2 54 -6 92 -9z m578 -23 c6 -28 265 -933 312 -1087 13
-44 65 -224 115 -400 50 -176 102 -356 115 -400 13 -44 37 -127 54 -185 16
-58 73 -256 126 -440 110 -381 107 -370 96 -384 -13 -17 -151 -258 -151 -265
0 -3 -8 -16 -18 -29 -18 -23 -19 -20 -99 260 -197 688 -335 1165 -344 1193
-11 36 -125 428 -144 500 -7 28 -79 277 -160 555 -200 692 -197 681 -189 689
3 3 44 6 91 8 48 2 88 5 90 6 1 2 25 4 52 6 46 2 49 0 54 -27z m-968 -782 c64
-223 120 -418 125 -435 4 -16 51 -181 105 -365 143 -495 216 -747 321 -1115
53 -181 138 -478 191 -660 53 -181 104 -359 114 -395 26 -97 157 -549 170
-593 16 -50 16 -49 -23 -145 l-34 -83 -75 73 c-41 40 -104 107 -139 148 -36
41 -67 77 -70 80 -14 14 -153 206 -206 285 -183 272 -354 629 -469 979 -46
140 -124 433 -139 521 -2 17 -9 53 -14 80 -13 64 -42 256 -48 315 -2 25 -6 65
-9 90 -27 231 -27 893 -1 1060 2 14 7 57 11 95 3 39 8 84 10 100 28 207 37
269 47 318 6 32 12 56 14 55 1 -2 55 -185 119 -408z"/>
</g>
</svg>
